<svg xmlns="http://www.w3.org/2000/svg" xmlns:xlink="http://www.w3.org/1999/xlink" width="500" zoomAndPan="magnify" viewBox="0 0 375 374.999991" height="500" preserveAspectRatio="xMidYMid meet" version="1.2"><defs><clipPath id="d7aad59d0f"><path d="M 2.617188 0 L 372.382812 0 L 372.382812 375 L 2.617188 375 Z M 2.617188 0 "/></clipPath><clipPath id="f9fb82e373"><path d="M 187.5 0 C 85.390625 0 2.617188 83.945312 2.617188 187.5 C 2.617188 291.054688 85.390625 375 187.5 375 C 289.609375 375 372.382812 291.054688 372.382812 187.5 C 372.382812 83.945312 289.609375 0 187.5 0 Z M 187.5 0 "/></clipPath><clipPath id="7f367ee884"><path d="M 70.28125 100 L 305 100 L 305 235 L 70.28125 235 Z M 70.28125 100 "/></clipPath><clipPath id="0f1b509530"><path d="M 80 102 L 252 102 L 252 275.085938 L 80 275.085938 Z M 80 102 "/></clipPath></defs><g id="511ad8cde7"><g clip-rule="nonzero" clip-path="url(#d7aad59d0f)"><g clip-rule="nonzero" clip-path="url(#f9fb82e373)"><path style=" stroke:none;fill-rule:nonzero;fill:#1f2026;fill-opacity:1;" d="M 2.617188 0 L 372.382812 0 L 372.382812 375.542969 L 2.617188 375.542969 Z M 2.617188 0 "/></g></g><g clip-rule="nonzero" clip-path="url(#7f367ee884)"><path style=" stroke:none;fill-rule:nonzero;fill:#ffffff;fill-opacity:1;" d="M 299.894531 101.515625 L 260.097656 144.03125 C 258.558594 145.679688 259.433594 148.378906 261.652344 148.816406 L 269.136719 150.296875 C 270.949219 150.652344 271.976562 152.601562 271.214844 154.285156 C 258.652344 182.09375 236.242188 203.660156 207.816406 215.210938 C 178.449219 227.148438 146.1875 226.964844 116.957031 214.707031 C 98.964844 207.167969 83.457031 195.601562 71.398438 181 C 71.007812 180.527344 70.285156 181.074219 70.632812 181.574219 C 83.667969 200.046875 101.902344 215.207031 124.332031 224.613281 C 186.8125 250.816406 258.59375 222.582031 286.53125 161.515625 C 287.292969 159.847656 289.394531 159.296875 290.871094 160.386719 L 297.804688 165.496094 C 299.664062 166.867188 302.308594 165.605469 302.40625 163.304688 L 304.882812 103.601562 C 305 100.925781 301.722656 99.558594 299.894531 101.515625 Z M 299.894531 101.515625 "/></g><g clip-rule="nonzero" clip-path="url(#0f1b509530)"><path style=" stroke:none;fill-rule:nonzero;fill:#ffffff;fill-opacity:1;" d="M 80.910156 182.992188 C 80.644531 182.609375 80.378906 182.238281 80.121094 181.839844 L 80.121094 169.539062 C 80.121094 164.429688 84.175781 160.230469 89.296875 160.039062 C 98.648438 159.683594 107.910156 158.816406 117.046875 157.457031 L 117.046875 206.554688 C 117.023438 206.539062 116.992188 206.527344 116.960938 206.519531 C 103.386719 200.828125 91.238281 192.839844 80.910156 182.992188 Z M 161.980469 215.835938 L 161.980469 146.363281 C 149.984375 150.550781 137.648438 153.816406 125.050781 156.125 L 125.050781 209.578125 C 137.082031 213.640625 149.519531 215.726562 161.980469 215.835938 Z M 206.910156 207.378906 L 206.910156 125.359375 C 195.105469 132.417969 182.757812 138.449219 169.984375 143.414062 L 169.984375 215.625 C 182.492188 214.878906 194.9375 212.132812 206.910156 207.378906 Z M 251.835938 145.039062 L 251.835938 112.1875 C 251.835938 104.175781 242.496094 99.707031 236.277344 104.777344 C 229.40625 110.375 222.273438 115.578125 214.910156 120.367188 L 214.910156 203.835938 C 215.050781 203.765625 215.191406 203.699219 215.335938 203.628906 C 237.734375 192.703125 251.835938 169.894531 251.835938 145.039062 Z M 124.339844 233.136719 C 106.898438 225.816406 92.011719 215.011719 80.113281 201.882812 L 80.113281 265.535156 C 80.113281 270.785156 84.386719 275.046875 89.65625 275.046875 L 242.285156 275.046875 C 247.554688 275.046875 251.828125 270.785156 251.828125 265.535156 L 251.828125 233.136719 C 251.828125 225.738281 243.726562 221.171875 237.371094 224.984375 C 204.347656 244.808594 162.601562 249.183594 124.339844 233.136719 Z M 124.339844 233.136719 "/></g></g></svg>